<?xml version="1.0" standalone="no"?>
<!DOCTYPE svg PUBLIC "-//W3C//DTD SVG 20010904//EN"
 "http://www.w3.org/TR/2001/REC-SVG-20010904/DTD/svg10.dtd">
<svg version="1.0" xmlns="http://www.w3.org/2000/svg"
 width="324.000000pt" height="324.000000pt" viewBox="0 0 324.000000 324.000000"
 preserveAspectRatio="xMidYMid meet">
<metadata>
Created by potrace 1.14, written by Peter Selinger 2001-2017
</metadata>
<g transform="translate(0.000000,324.000000) scale(0.100000,-0.100000)"
fill="#000000" stroke="none">
<path d="M1528 2255 c-2 -2 -24 -7 -48 -10 -25 -3 -52 -7 -60 -9 -8 -3 -42 -8
-75 -11 -33 -4 -82 -11 -110 -16 -27 -6 -66 -12 -85 -14 -29 -3 -152 -22 -410
-61 -50 -7 -62 -9 -135 -19 -27 -4 -59 -9 -70 -12 -11 -2 -38 -6 -60 -9 -22
-2 -49 -6 -60 -8 -38 -8 -140 -20 -147 -18 -5 1 -8 -3 -8 -9 0 -5 -4 -7 -10
-4 -5 3 -27 1 -48 -4 -53 -15 -86 -61 -88 -126 -3 -78 41 -119 156 -144 30 -7
62 -15 70 -18 8 -3 26 -8 39 -10 14 -2 50 -11 80 -20 31 -8 75 -19 99 -24 24
-5 47 -11 51 -13 7 -5 45 -14 86 -21 11 -2 47 -11 80 -20 33 -9 69 -18 80 -21
25 -4 290 -72 290 -74 0 -1 10 -3 23 -6 44 -8 58 -11 87 -18 17 -4 37 -10 45
-13 8 -4 26 -8 40 -10 14 -2 32 -6 40 -10 8 -3 18 -6 21 -5 4 1 22 -3 40 -9
104 -31 143 -33 239 -11 46 11 88 18 92 16 4 -3 8 0 8 7 0 7 3 10 6 7 3 -3 29
0 57 8 29 7 66 16 82 19 17 3 35 7 40 9 11 3 72 16 95 20 8 1 24 5 35 9 11 3
31 8 45 11 21 5 133 30 180 41 53 12 291 66 306 70 11 2 39 9 64 15 25 6 68
12 95 13 49 2 50 2 51 -28 0 -17 3 -35 6 -40 3 -6 2 -19 -2 -30 -4 -11 -4 -32
1 -47 4 -14 5 -29 1 -32 -5 -5 -6 -276 -2 -301 2 -6 1 -14 0 -20 -6 -30 -4
-115 3 -115 5 0 5 -4 2 -10 -9 -15 -12 -81 -4 -86 5 -3 4 -15 -1 -28 -5 -13
-7 -26 -5 -27 2 -2 6 -20 9 -39 9 -58 61 -78 107 -41 l24 19 0 436 0 437 40
11 c22 6 42 12 45 13 70 16 109 62 112 129 3 75 -63 132 -163 141 -30 3 -79
10 -111 16 -31 5 -60 9 -65 8 -4 -1 -10 0 -13 1 -12 4 -77 14 -175 25 -16 2
-43 6 -60 9 -16 3 -56 7 -87 10 -32 3 -61 7 -65 9 -5 3 -35 8 -68 11 -33 4
-73 9 -90 11 -16 3 -48 7 -70 10 -22 2 -53 7 -70 9 -40 6 -114 17 -145 20 -39
5 -132 17 -160 21 -14 3 -43 7 -65 9 -22 3 -51 8 -65 11 -35 7 -167 15 -172
10z"/>
<path d="M579 1563 c-1 -4 -3 -165 -4 -358 -1 -356 1 -386 37 -413 9 -7 23
-18 30 -25 22 -19 103 -64 163 -90 115 -49 210 -77 309 -92 21 -3 48 -8 60
-10 145 -34 568 -40 736 -11 14 3 43 7 65 11 22 3 47 7 55 10 8 2 31 6 51 9
20 3 48 10 63 15 14 6 26 9 26 6 0 -2 17 3 37 11 20 9 44 17 54 19 23 5 106
42 149 66 19 11 43 23 53 26 9 3 17 9 17 14 0 5 4 9 9 9 5 0 26 16 47 35 l38
35 1 348 c1 191 0 352 -3 359 -2 8 -12 9 -30 3 -22 -7 -116 -29 -237 -55 -11
-2 -69 -16 -130 -30 -60 -15 -121 -29 -135 -31 -14 -3 -53 -11 -86 -19 -34 -8
-73 -17 -85 -19 -13 -3 -42 -10 -64 -16 -22 -5 -55 -13 -74 -16 -19 -3 -44 -9
-55 -13 -55 -20 -192 -10 -276 20 -14 4 -36 11 -50 13 -14 3 -61 14 -105 26
-44 11 -98 25 -120 30 -22 5 -58 14 -80 20 -22 6 -49 13 -60 15 -11 3 -29 7
-40 9 -11 3 -47 12 -80 20 -74 18 -117 28 -130 31 -5 2 -34 10 -62 18 -29 9
-53 14 -53 11 0 -3 -9 0 -20 6 -11 6 -21 7 -21 3z"/>
</g>
</svg>
